<svg xmlns="http://www.w3.org/2000/svg" width="32" height="32" fill="none" viewBox="0 0 32 32">
    <mask id="yubmjnskga" width="32" height="32" x="0" y="0" maskUnits="userSpaceOnUse">
        <rect width="32" height="32" fill="#fff" rx="16"/>
    </mask>
    <g mask="url(#yubmjnskga)">
        <path fill="url(#paint0_radial)" d="M32.464 5.763C32.144 2.76 29.773.39 26.771.069c-7.529-.803-15.08-.803-22.608 0C1.161.39-1.21 2.761-1.531 5.763c-.803 7.528-.803 15.08 0 22.608.32 3.002 2.692 5.373 5.694 5.693 7.528.804 15.079.804 22.608 0 3.002-.32 5.373-2.691 5.693-5.694.804-7.528.804-15.079 0-22.607z"/>
        <path fill="url(#paint1_linear)" d="M30.404 7.132c-.282-2.638-2.365-4.721-5.003-5.003-6.616-.706-13.252-.706-19.868 0C2.895 2.411.81 4.494.529 7.132-.176 13.75-.176 20.384.53 27c.282 2.638 2.366 4.722 5.004 5.003 6.616.706 13.252.706 19.867 0 2.639-.281 4.722-2.365 5.004-5.003.706-6.616.706-13.252 0-19.868z"/>
        <path fill="#fff" fill-rule="evenodd" d="M7.523 12.222c-.017.127-.033.255-.051.382v6.58l.032.202c.025.146.05.291.06.438.165 2.477 1.874 4.312 4.348 4.405 2.735.103 5.48.1 8.214.002 2.474-.09 4.264-1.92 4.341-4.394.082-2.627.082-5.26 0-7.887-.077-2.474-1.868-4.305-4.34-4.394-2.736-.098-5.48-.093-8.216 0-2.272.08-3.86 1.606-4.268 3.85-.049.27-.084.543-.12.816zm9.642 10.55c-.388-.004-.775-.007-1.162-.007-.383 0-.765.003-1.148.007-.854.008-1.708.016-2.56-.016-1.945-.072-3.154-1.218-3.207-3.154-.067-2.47-.067-4.946 0-7.417.053-1.936 1.262-3.109 3.207-3.15 2.486-.052 4.976-.052 7.462 0 1.96.042 3.166 1.239 3.212 3.197.056 2.44.056 4.883 0 7.323-.046 1.958-1.252 3.128-3.212 3.2-.863.033-1.728.025-2.592.017z" clip-rule="evenodd"/>
        <path fill="#fff" fill-rule="evenodd" d="M11.654 15.895c0-2.4 1.946-4.346 4.346-4.346 2.401 0 4.347 1.946 4.347 4.346 0 2.4-1.946 4.347-4.347 4.347-2.4 0-4.346-1.946-4.346-4.347zm1.496 0c0 1.574 1.276 2.85 2.85 2.85 1.575 0 2.85-1.276 2.85-2.85s-1.276-2.85-2.85-2.85-2.85 1.276-2.85 2.85z" clip-rule="evenodd"/>
        <path fill="#fff" d="M21.634 11.35c0 .572-.462 1.034-1.033 1.034s-1.035-.462-1.035-1.033c0-.572.464-1.035 1.035-1.035.57 0 1.034.463 1.034 1.035z"/>
    </g>
    <defs>
        <radialGradient id="paint0_radial" cx="0" cy="0" r="1" gradientTransform="translate(5.082 30.229) scale(38.8194)" gradientUnits="userSpaceOnUse">
            <stop stop-color="#FAE100"/>
            <stop offset=".054" stop-color="#FADC04"/>
            <stop offset=".117" stop-color="#FBCE0E"/>
            <stop offset=".183" stop-color="#FCB720"/>
            <stop offset=".251" stop-color="#FE9838"/>
            <stop offset=".305" stop-color="#FF7950"/>
            <stop offset=".492" stop-color="#FF1C74"/>
            <stop offset="1" stop-color="#6C1CD1"/>
        </radialGradient>
        <linearGradient id="paint1_linear" x1="28.017" x2="-31.04" y1="-14.746" y2="-47.965" gradientUnits="userSpaceOnUse">
            <stop stop-color="#A1B5D8" stop-opacity=".01"/>
            <stop offset=".309" stop-color="#90A2BD" stop-opacity=".31"/>
            <stop offset=".755" stop-color="#7C8B9C" stop-opacity=".757"/>
            <stop offset="1" stop-color="#748290"/>
        </linearGradient>
    </defs>
</svg>
